<mxfile host="app.diagrams.net" modified="2024-03-12T01:50:25.003Z" agent="Mozilla/5.0 (Windows NT 10.0; Win64; x64; rv:122.0) Gecko/20100101 Firefox/122.0" version="22.1.16" etag="hW0fP2epbbg6nRE5-bNh" type="github">
  <diagram name="Page-1" id="JnfH0oUOCZsh67ksiDQA">
    <mxGraphModel>
      <root>
        <mxCell id="0" />
        <mxCell id="1" parent="0" />
      </root>
    </mxGraphModel>
  </diagram>
</mxfile>
